<?xml version="1.0" encoding="UTF-8"?>
<svg width="200px" height="200px" viewBox="0 0 200 200" version="1.1" xmlns="http://www.w3.org/2000/svg">
    <g stroke="none" stroke-width="1" fill="none" fill-rule="evenodd">
        <rect fill="#F3F4F6" width="200" height="200"/>
        <g transform="translate(40,40)" fill="#9CA3AF">
            <path d="M60,0 C93.137085,0 120,26.862915 120,60 C120,93.137085 93.137085,120 60,120 C26.862915,120 0,93.137085 0,60 C0,26.862915 26.862915,0 60,0 Z M60,12 C33.490332,12 12,33.490332 12,60 C12,86.509668 33.490332,108 60,108 C86.509668,108 108,86.509668 108,60 C108,33.490332 86.509668,12 60,12 Z"/>
            <path d="M60,36 C71.045695,36 80,44.954305 80,56 C80,67.045695 71.045695,76 60,76 C48.954305,76 40,67.045695 40,56 C40,44.954305 48.954305,36 60,36 Z"/>
            <path d="M24,96 C24,84.954305 32.954305,76 44,76 L76,76 C87.045695,76 96,84.954305 96,96 L96,100 C96,110.45695 87.045695,120 76,120 L44,120 C32.954305,120 24,110.45695 24,100 L24,96 Z"/>
        </g>
    </g>
</svg>
